<svg xmlns="http://www.w3.org/2000/svg" width="560" height="300" font-family="sans-serif" font-size="11" role="img" aria-label="Eval drift curve">
<rect x="0" y="0" width="560" height="300" rx="8" fill="#0d1117"/>
<text x="52" y="13" fill="#e6edf3" font-weight="bold">Pass-rate vs decision-library size</text>
<line x1="52" y1="20" x2="52" y2="256" stroke="#8b949e"/>
<line x1="52" y1="256" x2="430" y2="256" stroke="#8b949e"/>
<line x1="52" y1="256.0" x2="430" y2="256.0" stroke="#30363d"/>
<text x="44" y="259.0" fill="#8b949e" text-anchor="end">0%</text>
<line x1="52" y1="138.0" x2="430" y2="138.0" stroke="#30363d"/>
<text x="44" y="141.0" fill="#8b949e" text-anchor="end">50%</text>
<line x1="52" y1="20.0" x2="430" y2="20.0" stroke="#30363d"/>
<text x="44" y="23.0" fill="#8b949e" text-anchor="end">100%</text>
<text x="52.0" y="272" fill="#8b949e" text-anchor="middle">N=5</text>
<text x="178.0" y="272" fill="#8b949e" text-anchor="middle">N=25</text>
<text x="304.0" y="272" fill="#8b949e" text-anchor="middle">N=100</text>
<text x="430.0" y="272" fill="#8b949e" text-anchor="middle">N=250</text>
<polyline points="52.0,20.0 178.0,20.0 304.0,20.0 430.0,20.0" fill="none" stroke="#60a5fa" stroke-width="2"/>
<circle cx="52.0" cy="20.0" r="3.5" fill="#60a5fa"/>
<circle cx="178.0" cy="20.0" r="3.5" fill="#60a5fa"/>
<circle cx="304.0" cy="20.0" r="3.5" fill="#60a5fa"/>
<circle cx="430.0" cy="20.0" r="3.5" fill="#60a5fa"/>
<rect x="444" y="20" width="10" height="10" fill="#60a5fa"/>
<text x="458" y="29" fill="#e6edf3">B:opus</text>
<polyline points="52.0,20.0 178.0,20.0 304.0,20.0 430.0,20.0" fill="none" stroke="#4ade80" stroke-width="2"/>
<circle cx="52.0" cy="20.0" r="3.5" fill="#4ade80"/>
<circle cx="178.0" cy="20.0" r="3.5" fill="#4ade80"/>
<circle cx="304.0" cy="20.0" r="3.5" fill="#4ade80"/>
<circle cx="430.0" cy="20.0" r="3.5" fill="#4ade80"/>
<rect x="444" y="36" width="10" height="10" fill="#4ade80"/>
<text x="458" y="45" fill="#e6edf3">B:sonnet</text>
<polyline points="52.0,20.0 178.0,20.0 304.0,20.0 430.0,20.0" fill="none" stroke="#f87171" stroke-width="2"/>
<circle cx="52.0" cy="20.0" r="3.5" fill="#f87171"/>
<circle cx="178.0" cy="20.0" r="3.5" fill="#f87171"/>
<circle cx="304.0" cy="20.0" r="3.5" fill="#f87171"/>
<circle cx="430.0" cy="20.0" r="3.5" fill="#f87171"/>
<rect x="444" y="52" width="10" height="10" fill="#f87171"/>
<text x="458" y="61" fill="#e6edf3">B:haiku</text>
<polyline points="304.0,20.0" fill="none" stroke="#c084fc" stroke-width="2"/>
<circle cx="304.0" cy="20.0" r="3.5" fill="#c084fc"/>
<rect x="444" y="68" width="10" height="10" fill="#c084fc"/>
<text x="458" y="77" fill="#e6edf3">B:opus-detailed</text>
</svg>
